<svg width="57" height="67" viewBox="0 0 57 67" fill="none" xmlns="http://www.w3.org/2000/svg">
<path d="M28.6021 12.1489C29.0015 10.935 29.0015 10.8735 30.1074 10.9503C33.794 11.1808 37.3115 12.1335 40.5987 13.8391C48.6937 18.0646 53.7934 24.641 55.5445 33.5837C57.2649 42.3882 55.099 50.3475 49.2927 57.2006C44.8843 62.4095 39.2162 65.6055 32.4729 66.635C24.3472 67.8796 16.9742 65.9435 10.5227 60.7961C5.22337 56.5706 1.85941 51.0851 0.569124 44.4318C-0.966929 36.5647 0.615206 29.2814 5.20801 22.6742C5.45377 22.3362 5.5613 22.0596 5.34625 21.6447C5.208 21.3835 5.14656 20.9687 5.26945 20.7228C5.60738 20.0621 6.05283 19.4475 6.49829 18.8329C6.55973 18.756 6.91302 18.7714 7.02055 18.8789C7.86538 19.6165 8.67949 20.4001 9.50896 21.153C9.84689 21.4604 9.61648 21.6601 9.38607 21.8752C9.07886 22.1672 8.77165 22.4438 8.4798 22.7511C8.06506 23.1813 7.57353 23.3964 6.98983 23.1659C6.68262 23.043 6.51365 23.0584 6.31396 23.3503C3.71803 27.0534 2.02837 31.1253 1.53684 35.6427C0.753451 42.8491 2.41239 49.4256 6.85158 55.1877C10.9682 60.5349 16.3598 63.9153 22.9955 65.1599C30.5836 66.5889 37.5573 65.0216 43.7937 60.4734C49.3542 56.4015 52.8717 50.9161 54.1774 44.1399C55.6981 36.2727 54.0391 29.0509 49.1852 22.6742C44.8689 17.0044 39.1087 13.6547 32.0736 12.4869C30.983 12.3179 29.8156 12.2718 28.6021 12.1489Z" fill="white"/>
<path d="M12.9349 18.1392C12.5816 18.4772 12.1822 18.8614 11.7521 19.2609C10.723 18.2928 9.70919 17.3555 8.57251 16.2799C9.09477 15.819 9.55558 15.4195 10.0318 15.02C10.0778 14.9739 10.1393 14.8971 10.1854 14.9124C11.0763 15.1122 11.1838 14.2517 11.5371 13.8368C13.1192 11.993 14.7628 10.2106 16.8826 8.98133C17.6659 8.52037 18.5876 8.28988 19.4631 7.98257C19.6628 7.90575 19.8932 7.96721 20.139 7.96721C19.97 8.52036 19.8318 8.9967 19.6475 9.45766C19.6014 9.58059 19.4324 9.71888 19.2942 9.76497C18.5569 10.0262 18.2804 10.5947 18.1268 11.3015C18.0807 11.5166 17.9117 11.7932 17.712 11.8854C17.0515 12.2235 16.6522 12.7151 16.5446 13.4373C16.4985 13.76 16.3757 13.9751 16.007 14.1134C15.1775 14.39 14.9625 15.1429 14.8089 15.9265C14.7628 16.1878 14.686 16.4336 14.6092 16.8024C15.9763 17.7704 17.4202 18.8153 18.8794 19.8294C19.4324 20.2135 19.9547 19.9523 20.354 19.5221C21.0453 18.7538 21.7672 17.9855 22.3509 17.1404C23.7026 15.2197 25.0544 13.299 25.7763 11.0096C25.9606 10.4103 25.9146 10.0108 25.3309 9.71887C25.1926 9.64205 25.0851 9.51913 24.9315 9.38084C25.3309 9.10426 25.7149 8.9045 26.0221 8.64329C26.8055 7.95184 26.7594 7.13747 25.9146 6.50748C24.5628 5.49336 23.1957 4.47923 21.8287 3.48047C21.6443 3.34218 21.4754 3.2039 21.1835 2.95805C22.0744 2.77366 22.8271 2.60464 23.5798 2.45099C24.824 2.20514 26.0528 1.95929 27.297 1.71344C27.9114 1.59052 28.2494 1.79027 28.403 2.38953C28.5566 2.97342 28.6641 3.58803 28.8638 4.17192C29.0635 4.77118 28.7716 5.15532 28.3262 5.44726C27.7885 5.7853 27.2202 6.06188 26.7287 6.32309C27.1127 7.33722 27.5428 8.28988 27.8039 9.27328C27.9421 9.82643 27.9268 10.5179 27.7425 11.0557C26.8055 13.8368 25.1004 16.2031 23.3801 18.5387C22.8578 19.2609 22.2895 19.9523 21.6904 20.613C20.4462 21.9498 19.4324 22.1342 17.8503 21.2123C16.2067 20.2135 14.6246 19.184 12.9349 18.1392Z" fill="white"/>
<path d="M14.1942 4.72622C14.5782 5.21791 14.9776 5.04889 15.4384 4.86451C16.7287 4.34208 18.019 3.81965 19.3554 3.42015C19.8162 3.28186 20.5074 3.35869 20.9068 3.6199C22.5043 4.64939 24.0557 5.77107 25.5917 6.89276C26.1908 7.33836 26.1754 7.66103 25.6685 8.19883C24.8544 9.05929 23.9942 9.12076 23.0265 8.41394C21.3215 7.20007 19.4936 7.20007 17.6503 7.96834C15.6535 8.81345 14.1021 10.2732 12.6428 11.8251C11.9055 12.6087 11.2296 13.4538 10.4463 14.3297C9.81647 13.7304 9.18669 13.1619 8.60299 12.5626C8.51083 12.4704 8.48011 12.1785 8.54155 12.0863C10.3541 9.65855 12.1666 7.2308 13.9945 4.81841C14.0406 4.78768 14.0867 4.77231 14.1942 4.72622Z" fill="white"/>
<path d="M11.4137 2.03558C10.9375 1.63607 10.6918 1.77436 10.3692 2.21996C8.80242 4.35577 7.20492 6.47621 5.63815 8.61202C4.9162 9.59541 4.19426 10.5788 3.44159 11.5929C4.48611 12.3766 5.46918 13.1141 6.52906 13.9131C9.03282 10.5788 11.4751 7.32131 13.9636 4.01773C13.0726 3.32628 12.2125 2.71166 11.4137 2.03558ZM6.43689 11.7005C5.94536 11.7159 5.54598 11.3164 5.54598 10.84C5.54598 10.3637 5.94536 9.93345 6.40617 9.93345C6.86699 9.91809 7.28172 10.3483 7.28172 10.8247C7.28172 11.3471 6.95915 11.7005 6.43689 11.7005Z" fill="white"/>
<path d="M42.9336 0.804301C42.9336 0.942591 42.9336 0.973324 42.9336 0.988689C42.396 2.47914 42.3806 2.54061 40.7832 2.37159C36.943 1.95672 33.2718 2.50988 29.785 4.15399C29.6775 4.20008 29.5546 4.23081 29.3549 4.29228C29.1399 3.49327 28.9248 2.74036 28.7712 1.95671C28.7559 1.86452 29.0477 1.61867 29.2167 1.57258C31.0292 1.11161 32.8418 0.604552 34.685 0.23578C35.6835 0.036028 36.7433 -0.0408034 37.7725 0.0206587C38.817 0.0821208 39.8462 0.374069 40.8907 0.54309C41.5358 0.666014 42.227 0.727473 42.9336 0.804301Z" fill="white"/>
<path d="M19.7548 10.1045C20.2309 10.3196 20.5689 10.3964 20.83 10.5962C21.767 11.303 22.6733 12.0252 23.5795 12.7781C24.2247 13.3312 24.2707 13.869 23.7946 14.499C23.3491 15.0829 22.7654 15.2058 22.1203 14.7448C21.1065 14.0227 20.108 13.2544 19.1403 12.4554C18.7102 12.102 18.4645 11.5642 18.8024 11.0418C19.0328 10.6576 19.4475 10.3964 19.7548 10.1045Z" fill="white"/>
<path d="M18.2031 15.3032C17.9573 15.0727 17.6962 14.8576 17.4658 14.6118C16.8974 14.0586 16.8206 13.444 17.2507 12.9216C17.6962 12.3684 18.4028 12.2148 19.0018 12.645C19.9542 13.3211 20.8604 14.0433 21.7513 14.7962C22.2582 15.2264 22.289 15.841 21.951 16.3481C21.5517 16.932 20.8758 17.1471 20.2767 16.809C19.8927 16.5939 19.5702 16.2866 19.2015 16.0254C19.0325 15.9178 18.8482 15.841 18.6639 15.7335C18.4949 15.5952 18.3567 15.4415 18.2031 15.3032Z" fill="white"/>
<path d="M20.4148 9.5017C20.4302 8.41075 21.3825 7.7193 22.1198 8.19563C23.1029 8.82562 24.0092 9.60926 24.8847 10.3929C25.3302 10.7924 25.2073 11.3148 24.8693 11.7758C24.47 12.3136 23.917 12.5287 23.4408 12.206C22.5038 11.5607 21.6129 10.8539 20.7374 10.1163C20.5223 9.9473 20.4762 9.60926 20.4148 9.5017Z" fill="white"/>
<path d="M18.2025 15.3085C18.3561 15.4468 18.5097 15.6004 18.6479 15.7387C18.8937 15.9692 19.1395 16.1997 19.3699 16.4455C19.8461 16.9526 19.8614 17.5057 19.4467 18.0435C19.078 18.5199 18.4482 18.7196 17.926 18.3662C17.1272 17.813 16.3592 17.2138 15.6373 16.5531C15.1611 16.1075 15.1918 15.5236 15.5758 15.0012C15.9445 14.5095 16.4975 14.3712 17.0965 14.6631C17.4805 14.8629 17.8338 15.0933 18.2025 15.3085Z" fill="white"/>
<path d="M8.32575 16.7621C9.3549 17.7301 10.3226 18.652 11.3518 19.62C11.0138 20.0042 10.7066 20.4037 10.3533 20.7571C10.2612 20.8493 9.9386 20.8493 9.83108 20.7571C8.97089 20.0042 8.12606 19.2205 7.31195 18.4215C7.21979 18.3293 7.20443 18.022 7.28123 17.9145C7.58844 17.515 7.94173 17.1769 8.32575 16.7621Z" fill="white"/>
<path d="M23.5173 39.1062H27.9872L27.2192 41.7184H28.6938L28.064 44.3305H26.5126L24.7308 50.9991H20.3991L22.5649 44.0539H20.3991L21.0289 41.5186H22.949L23.5173 39.1062Z" fill="white"/>
<path d="M16.1914 41.6035H20.4002L17.9732 50.8843H13.7644L16.1914 41.6035Z" fill="white"/>
<path d="M17.0818 38.9698L16.5135 40.9827H20.6455L21.0295 38.9698H17.0818Z" fill="white"/>
<path d="M14.4857 32.7949C14.9312 33.6093 14.7622 35.0229 14.1478 35.8526C13.5026 36.7131 12.2123 37.2355 11.2907 37.0204C13.5026 36.4826 14.5318 35.0536 14.4857 32.7949Z" fill="#FF7900"/>
<path d="M14.7623 26.559L14.6087 26.9739C13.9175 26.4361 12.8884 26.3439 11.1373 26.4361C10.0159 26.4976 8.9407 26.6051 7.94227 27.1737C7.05136 27.6807 6.28333 28.4183 5.68427 29.2634C5.00841 30.2314 4.48615 31.3223 4.16358 32.444C3.85637 33.5042 3.74884 34.6106 3.81028 35.5171C3.96389 37.6837 5.62283 38.3598 7.91155 38.3598L9.67801 38.2829L10.8761 38.2215L11.3677 38.2061C11.3062 38.2061 11.8131 38.1293 11.7824 38.2215C11.6442 38.7132 11.2601 39.8041 10.4614 40.1114C10.0467 40.2651 9.43224 40.3573 9.07895 40.0807C8.92534 39.9578 8.81782 39.7887 8.7871 39.589C8.77174 39.5275 8.75638 39.0051 8.83318 39.0051C8.81782 39.0051 2.50464 39.0358 2.50464 39.0358C2.4432 39.4046 2.4432 40.1268 2.50464 40.3419C3.04226 42.0475 5.23881 42.7543 9.09431 42.7543C13.9329 42.7543 16.0065 41.4175 16.8975 38.3137L20.2614 26.4515L14.7623 26.559ZM11.3062 37.6529C8.52597 37.4071 7.00528 34.3494 8.51061 31.9984C8.83318 31.4914 9.27863 31.0611 9.70873 30.6463C10.0006 30.3543 10.3539 30.1085 10.6918 29.8473C11.767 29.0329 12.8884 28.28 13.7332 27.0507C13.7485 28.4336 14.1786 29.6014 14.578 30.7846C14.9006 31.7219 15.2385 32.6745 15.2846 33.6886C15.4075 35.9935 13.5335 37.8527 11.3062 37.6529Z" fill="#FF7900"/>
<path d="M29.831 29.7836C29.4777 29.4456 29.0169 29.1997 28.4485 29.0461C27.8956 28.8771 27.3119 28.7695 26.7128 28.7234C26.1137 28.6927 25.5454 28.6773 25.0231 28.6773C23.6714 28.6619 22.4887 28.8617 21.4902 29.2612C20.4764 29.6761 19.7852 30.5058 19.4165 31.7197L23.3949 31.735C23.6407 31.0897 24.209 30.767 25.0692 30.7824C25.4225 30.7824 25.7451 30.8285 26.0216 30.936C26.2827 31.059 26.421 31.2741 26.4363 31.5968C26.4056 32.1345 26.0523 32.4419 25.3457 32.5341C25.0539 32.5802 24.7159 32.6109 24.3626 32.6262C23.994 32.6416 23.6407 32.657 23.3335 32.6723C21.736 32.7338 20.4457 32.995 19.478 33.456C18.4949 33.9323 17.988 34.7774 17.9727 35.9913C17.988 36.8671 18.3413 37.4971 19.0325 37.8659C19.7084 38.2654 20.5071 38.4651 21.4441 38.4651C22.1046 38.4651 22.7805 38.3576 23.441 38.1578C24.0708 37.9734 24.593 37.6969 24.9771 37.3281H25.0231C25.0078 37.6354 25.0539 37.9274 25.1767 38.2193H29.1705C29.0476 38.0042 28.9862 37.7276 28.9862 37.3896C28.9862 37.2052 29.063 36.8671 29.2012 36.3447C29.3395 35.8223 29.4931 35.223 29.6774 34.5623C30.0921 33.1333 30.3072 31.9963 30.3379 31.1358C30.3532 30.5673 30.1843 30.1217 29.831 29.7836ZM25.1307 35.7301C24.762 36.145 24.209 36.3601 23.4717 36.3601C23.1184 36.3601 22.8112 36.2986 22.5194 36.191C22.2275 36.0835 22.0739 35.8684 22.0739 35.5611C22.0739 35.223 22.2275 34.9772 22.5194 34.7928C22.7959 34.6238 23.1184 34.5316 23.4871 34.5162C23.9018 34.4855 24.3012 34.4394 24.7006 34.3933C25.0846 34.3472 25.4532 34.255 25.8065 34.1013C25.6836 34.7774 25.4686 35.3306 25.1307 35.7301Z" fill="#FF7900"/>
<path d="M36.0678 38.3713C37.5731 38.2792 38.7866 37.9872 39.7082 37.4648C40.7988 36.8655 41.3518 36.0204 41.3672 34.9295C41.3672 33.9768 40.9525 33.3007 40.1076 32.8859C39.2474 32.471 37.9725 32.1944 36.2521 32.0408C35.5763 32.0254 35.223 31.7949 35.2076 31.3339C35.2076 31.042 35.3612 30.8422 35.6531 30.7193C35.8988 30.6271 36.1907 30.581 36.5133 30.581C36.8973 30.581 37.2506 30.6579 37.5731 30.8115C37.8343 30.9498 37.9418 31.1956 37.8957 31.5644H41.9816C42.043 30.9498 41.9202 30.4274 41.6283 30.0279C41.3211 29.6284 40.9064 29.3364 40.3534 29.1367C39.8158 28.9369 39.2321 28.7833 38.5869 28.7064C37.9418 28.645 37.2966 28.6142 36.6515 28.6142C35.1769 28.5989 33.8405 28.8294 32.6424 29.2903C32.0894 29.5362 31.644 29.8896 31.306 30.3352C30.9374 30.7808 30.7531 31.3493 30.7531 32.0254C30.7531 32.5324 30.8913 32.932 31.1524 33.2239C31.4136 33.5158 31.7054 33.7617 32.0433 33.9307C32.412 34.0844 32.7806 34.1919 33.1186 34.2688C33.4412 34.3456 33.7023 34.407 33.902 34.4224C34.3781 34.4685 34.7775 34.5146 35.1462 34.5453C35.5148 34.5914 35.822 34.6529 36.0832 34.7297C36.3443 34.7758 36.5593 34.8526 36.7129 34.9602C36.8358 35.0524 36.8973 35.2061 36.8973 35.3751C36.9126 35.498 36.8358 35.6516 36.6822 35.8514C36.5747 35.9282 36.4365 36.0051 36.2368 36.0665C36.0371 36.1587 35.776 36.2048 35.4227 36.2048C34.885 36.2048 34.6546 36.3124 34.3474 36.1433C34.0709 35.9436 34.2706 35.7285 34.2706 35.3751H29.6625C29.6471 36.0665 29.8161 36.3738 30.154 36.7733C30.4766 37.2189 30.922 37.557 31.475 37.7721C32.0126 37.9872 32.5963 38.1409 33.2415 38.2331L34.9311 36.8502L36.0678 38.3713Z" fill="#FF7900"/>
<path d="M38.6014 41.4925L37.5415 45.4414C37.4493 45.7641 37.3572 46.1021 37.2496 46.4862C37.1421 46.8704 37.0039 47.2238 36.8503 47.5311C36.6967 47.8538 36.497 48.115 36.2205 48.3301C35.9594 48.576 35.5907 48.6835 35.1453 48.6835C34.0393 48.6835 34.6691 47.2084 34.838 46.6245C34.838 46.6245 35.9133 42.7832 36.2512 41.5846H38.3402L36.0515 38.3579C35.7904 38.3733 35.5293 38.3886 35.2528 38.3886C34.623 38.3886 33.9932 38.3425 33.3481 38.235C33.3327 38.235 33.302 38.235 33.2866 38.2196L29.1854 41.6H31.8427C31.1208 44.1661 30.6293 45.9485 30.3528 46.9472C30.1224 47.777 30.0148 48.745 30.4296 49.544C30.9518 50.5274 32.0885 50.8193 33.1177 50.9269C33.6399 50.973 34.1622 50.9883 34.6691 50.973C34.9763 50.9576 35.2989 50.9115 35.5907 50.7886C35.7443 50.7271 35.8826 50.6503 36.0208 50.5735C36.0976 50.5274 36.2819 50.2815 36.3587 50.2815H36.4048L36.2512 50.8193H40.0453L42.5183 41.5232H38.6014V41.4925Z" fill="#FF7900"/>
<path d="M49.3694 41.4443C47.8795 41.3982 47.219 41.8285 47.219 41.8285V41.4443H42.918L39.6309 53.9057L43.9011 53.7828L44.7766 50.4485C44.7766 50.4485 44.8227 51.3858 47.5876 50.9709C50.3525 50.5561 52.6105 49.7417 53.4093 45.424C54.208 41.1063 50.8594 41.4904 49.3694 41.4443ZM48.6782 44.3945L47.9102 47.3293C47.9102 47.3293 47.4187 48.8044 46.5738 48.8659C45.729 48.9273 45.6215 48.0515 45.6215 47.6673C45.6215 47.2832 46.4356 44.3945 46.4356 44.3945C46.4356 44.3945 46.881 43.3035 47.8795 43.3035C48.8779 43.3189 48.6782 44.3945 48.6782 44.3945Z" fill="#FF7900"/>
</svg>
