<svg width="66" height="78" viewBox="0 0 66 78" fill="none" xmlns="http://www.w3.org/2000/svg">
<path d="M33.2103 14.0815C33.6741 12.672 33.6741 12.6006 34.9582 12.6899C39.2387 12.9575 43.323 14.0636 47.1397 16.044C56.539 20.9503 62.4603 28.5863 64.4935 38.9699C66.4911 49.1928 63.9763 58.4345 57.2346 66.3917C52.1158 72.4398 45.5346 76.1508 37.7048 77.3461C28.2699 78.7913 19.709 76.5433 12.2181 70.5665C6.06493 65.6602 2.15899 59.2909 0.660819 51.5657C-1.12272 42.431 0.714325 33.9743 6.0471 26.3026C6.33246 25.9101 6.45731 25.589 6.20761 25.1073C6.0471 24.804 5.97575 24.3223 6.11844 24.0368C6.51081 23.2696 7.02804 22.556 7.54527 21.8424C7.61661 21.7532 8.02682 21.771 8.15167 21.8959C9.13261 22.7523 10.0779 23.6622 11.041 24.5364C11.4334 24.8932 11.1658 25.1251 10.8983 25.3749C10.5416 25.7139 10.1849 26.035 9.84603 26.3918C9.36447 26.8914 8.79374 27.1412 8.116 26.8736C7.75929 26.7308 7.5631 26.7487 7.33124 27.0876C4.31707 31.3874 2.35518 36.1153 1.78445 41.3606C0.874843 49.7281 2.80106 57.3641 7.95548 64.0545C12.7354 70.2632 18.9956 74.1883 26.7004 75.6334C35.5111 77.2926 43.6083 75.4728 50.8495 70.1918C57.3059 65.4639 61.3902 59.0947 62.9062 51.2267C64.6719 42.0921 62.7457 33.7067 57.1097 26.3026C52.098 19.7193 45.4097 15.8299 37.2411 14.474C35.9748 14.2777 34.6193 14.2242 33.2103 14.0815Z" fill="#551D87"/>
<path d="M15.0066 21.0655C14.5964 21.458 14.1327 21.904 13.6333 22.3679C12.4384 21.2439 11.2612 20.1556 9.94141 18.9067C10.5478 18.3715 11.0829 17.9076 11.6358 17.4437C11.6893 17.3902 11.7606 17.301 11.8141 17.3189C12.8486 17.5508 12.9734 16.5517 13.3836 16.07C15.2207 13.929 17.1291 11.8595 19.5903 10.4322C20.4999 9.89694 21.5701 9.62932 22.5867 9.2725C22.8185 9.18329 23.0861 9.25465 23.3714 9.25465C23.1752 9.89693 23.0147 10.45 22.8007 10.9852C22.7472 11.128 22.551 11.2885 22.3905 11.3421C21.5344 11.6454 21.2134 12.3055 21.035 13.1262C20.9815 13.376 20.7853 13.6971 20.5534 13.8041C19.7865 14.1966 19.3228 14.7676 19.198 15.6061C19.1444 15.9808 19.0018 16.2305 18.5737 16.3911C17.6106 16.7123 17.3609 17.5865 17.1826 18.4964C17.1291 18.7997 17.0399 19.0851 16.9507 19.5133C18.538 20.6373 20.2146 21.8505 21.9089 23.028C22.551 23.474 23.1574 23.1707 23.6211 22.6712C24.4237 21.7791 25.262 20.8871 25.9397 19.9058C27.5092 17.6757 29.0787 15.4455 29.917 12.7872C30.131 12.0914 30.0775 11.6275 29.3998 11.2885C29.2393 11.1993 29.1144 11.0566 28.9361 10.896C29.3998 10.5749 29.8457 10.343 30.2024 10.0397C31.112 9.23681 31.0585 8.29123 30.0775 7.55975C28.508 6.38223 26.9207 5.20471 25.3333 4.04504C25.1193 3.88447 24.9231 3.7239 24.5842 3.43844C25.6187 3.22435 26.4926 3.0281 27.3665 2.84969C28.8112 2.56423 30.238 2.27877 31.6827 1.99331C32.3961 1.85058 32.7885 2.08252 32.9669 2.77832C33.1452 3.45629 33.2701 4.16993 33.5019 4.84789C33.7338 5.54369 33.3949 5.98973 32.8777 6.32871C32.2534 6.72121 31.5935 7.04235 31.0228 7.34565C31.4687 8.52316 31.9681 9.62932 32.2713 10.7712C32.4318 11.4134 32.414 12.2163 32.1999 12.8407C31.112 16.07 29.1322 18.8175 27.1347 21.5294C26.5283 22.3679 25.8684 23.1707 25.1728 23.9379C23.7281 25.4901 22.551 25.7042 20.714 24.6337C18.8056 23.474 16.9685 22.2787 15.0066 21.0655Z" fill="#551D87"/>
<path d="M16.4755 5.48577C16.9214 6.05668 17.3851 5.86043 17.9202 5.64634C19.4184 5.03974 20.9165 4.43314 22.4682 3.96927C23.0033 3.8087 23.8059 3.89791 24.2696 4.20121C26.1245 5.39656 27.9258 6.69897 29.7094 8.00137C30.4049 8.51876 30.3871 8.89343 29.7985 9.51787C28.8533 10.517 27.8545 10.5883 26.7309 9.76764C24.7511 8.35819 22.6287 8.35819 20.4885 9.25025C18.1699 10.2315 16.3685 11.9264 14.6742 13.7284C13.8181 14.6383 13.0333 15.6195 12.1237 16.6365C11.3925 15.9407 10.6612 15.2806 9.98346 14.5847C9.87645 14.4777 9.84077 14.1387 9.91212 14.0317C12.0167 11.2128 14.1213 8.39387 16.2437 5.59281C16.2972 5.55713 16.3507 5.53929 16.4755 5.48577Z" fill="#551D87"/>
<path d="M13.2526 2.36786C12.6997 1.90399 12.4144 2.06457 12.0398 2.58196C10.2206 5.06188 8.36576 7.52396 6.54655 10.0039C5.70829 11.1457 4.87003 12.2875 3.99609 13.4651C5.2089 14.375 6.35036 15.2313 7.581 16.1591C10.4882 12.2875 13.324 8.50521 16.2133 4.66937C15.1789 3.86652 14.1801 3.15287 13.2526 2.36786ZM7.47399 13.5899C6.90326 13.6078 6.43954 13.1439 6.43954 12.5908C6.43954 12.0378 6.90326 11.5382 7.43832 11.5382C7.97338 11.5204 8.45493 12.0199 8.45493 12.573C8.45493 13.1796 8.08039 13.5899 7.47399 13.5899Z" fill="#551D87"/>
<path d="M49.8628 0.933886C49.8628 1.09446 49.8628 1.13014 49.8628 1.14798C49.2386 2.87857 49.2208 2.94994 47.3659 2.75368C42.9071 2.27197 38.6444 2.91426 34.5958 4.82326C34.4709 4.87678 34.3282 4.91246 34.0964 4.98383C33.8467 4.05609 33.597 3.18187 33.4186 2.27197C33.4008 2.16492 33.7397 1.87947 33.9359 1.82594C36.0404 1.29071 38.145 0.701955 40.2853 0.273767C41.4446 0.0418326 42.6752 -0.0473774 43.8702 0.0239871C45.083 0.0953517 46.2779 0.434338 47.4907 0.63059C48.2398 0.773319 49.0424 0.844681 49.8628 0.933886Z" fill="#551D87"/>
<path d="M22.9301 11.7266C23.483 11.9763 23.8754 12.0655 24.1786 12.2975C25.2666 13.1182 26.3189 13.9567 27.3711 14.8309C28.1202 15.4732 28.1737 16.0976 27.6208 16.8291C27.1036 17.5071 26.4259 17.6498 25.6768 17.1146C24.4997 16.276 23.3404 15.384 22.2167 14.4563C21.7173 14.0459 21.432 13.4215 21.8244 12.8149C22.0919 12.3688 22.5734 12.0655 22.9301 11.7266Z" fill="#551D87"/>
<path d="M21.1359 17.7806C20.8505 17.513 20.5473 17.2632 20.2798 16.9777C19.6199 16.3355 19.5307 15.6218 20.0301 15.0152C20.5473 14.3729 21.3678 14.1945 22.0633 14.6941C23.1691 15.4791 24.2214 16.3176 25.2559 17.1918C25.8444 17.6914 25.8801 18.405 25.4877 18.9938C25.024 19.6718 24.2392 19.9215 23.5437 19.529C23.0978 19.2793 22.7232 18.9224 22.2952 18.6191C22.099 18.4942 21.885 18.405 21.671 18.2802C21.4748 18.1196 21.3143 17.9412 21.1359 17.7806Z" fill="#551D87"/>
<path d="M23.6914 11.0301C23.7092 9.76336 24.815 8.96051 25.6711 9.51359C26.8126 10.2451 27.8649 11.155 28.8815 12.0649C29.3987 12.5287 29.256 13.1353 28.8637 13.6706C28.3999 14.295 27.7579 14.5448 27.205 14.1701C26.117 13.4208 25.0826 12.6001 24.0659 11.7437C23.8163 11.5475 23.7627 11.155 23.6914 11.0301Z" fill="#551D87"/>
<path d="M21.1427 17.7771C21.3211 17.9376 21.4995 18.116 21.66 18.2766C21.9453 18.5442 22.2307 18.8119 22.4982 19.0973C23.0511 19.6861 23.069 20.3283 22.5874 20.9528C22.1594 21.5059 21.4281 21.7378 20.8217 21.3275C19.8943 20.6852 19.0025 19.9894 18.1642 19.2222C17.6113 18.7048 17.647 18.0268 18.0929 17.4202C18.5209 16.8493 19.163 16.6888 19.8586 17.0277C20.3045 17.2597 20.7147 17.5273 21.1427 17.7771Z" fill="#551D87"/>
<path d="M9.66834 19.4609C10.8633 20.5849 11.9869 21.6554 13.1819 22.7794C12.7895 23.2254 12.4328 23.6893 12.0226 24.0996C11.9156 24.2067 11.5411 24.2067 11.4162 24.0996C10.4174 23.2254 9.43648 22.3155 8.49121 21.3878C8.38419 21.2807 8.36636 20.9239 8.45554 20.799C8.81224 20.3352 9.22246 19.9426 9.66834 19.4609Z" fill="#551D87"/>
<path d="M27.3042 45.4219H32.4943L31.6025 48.4549H33.3147L32.5834 51.4879H30.7821L28.7132 59.2309H23.6836L26.1984 51.1667H23.6836L24.4148 48.2229H26.6443L27.3042 45.4219Z" fill="#551D87"/>
<path d="M18.8063 48.3125H23.6932L20.8752 59.0885H15.9883L18.8063 48.3125Z" fill="#551D87"/>
<path d="M19.8357 45.2578L19.1758 47.595H23.9735L24.4194 45.2578H19.8357Z" fill="#551D87"/>
<path d="M16.8348 38.0859C17.352 39.0315 17.1558 40.6729 16.4424 41.6363C15.6933 42.6354 14.1951 43.242 13.125 42.9923C15.6933 42.3678 16.8883 40.7086 16.8348 38.0859Z" fill="#FF7900"/>
<path d="M17.1494 30.8431L16.971 31.3248C16.1685 30.7004 14.9735 30.5934 12.9403 30.7004C11.6383 30.7718 10.3898 30.8967 9.2305 31.5568C8.19605 32.1455 7.30428 33.0019 6.60871 33.9832C5.82395 35.1072 5.21755 36.3739 4.84301 37.6763C4.4863 38.9073 4.36145 40.1919 4.43279 41.2445C4.61115 43.7601 6.53736 44.5451 9.19483 44.5451L11.2459 44.4559L12.6371 44.3846L13.2078 44.3667C13.1364 44.3667 13.725 44.2775 13.6893 44.3846C13.5288 44.9555 13.0829 46.2222 12.1555 46.579C11.6739 46.7574 10.9605 46.8645 10.5503 46.5433C10.372 46.4006 10.2471 46.2044 10.2114 45.9724C10.1936 45.9011 10.1758 45.2945 10.265 45.2945C10.2471 45.2945 2.91679 45.3301 2.91679 45.3301C2.84545 45.7583 2.84545 46.5969 2.91679 46.8466C3.54102 48.827 6.09148 49.6477 10.5682 49.6477C16.1863 49.6477 18.5941 48.0955 19.6285 44.4916L23.5345 30.7182L17.1494 30.8431ZM13.1364 43.7244C9.90825 43.439 8.14255 39.8886 9.89041 37.1589C10.265 36.5701 10.7822 36.0706 11.2816 35.5889C11.6204 35.2499 12.0307 34.9644 12.423 34.6611C13.6715 33.7156 14.9735 32.8413 15.9544 31.4141C15.9723 33.0198 16.4717 34.3757 16.9354 35.7494C17.3099 36.8378 17.7023 37.9439 17.7558 39.1214C17.8985 41.7976 15.7226 43.9564 13.1364 43.7244Z" fill="#FF7900"/>
<path d="M34.6322 34.5824C34.222 34.1899 33.6869 33.9044 33.027 33.726C32.3849 33.5298 31.7072 33.4049 31.0116 33.3514C30.316 33.3157 29.6561 33.2978 29.0497 33.2978C27.4802 33.28 26.1069 33.5119 24.9476 33.9758C23.7704 34.4575 22.9679 35.4209 22.5398 36.8304L27.1592 36.8482C27.4445 36.0989 28.1044 35.7242 29.1032 35.7421C29.5134 35.7421 29.888 35.7956 30.209 35.9205C30.5122 36.0632 30.6727 36.313 30.6906 36.6876C30.6549 37.3121 30.2447 37.6689 29.4243 37.776C29.0854 37.8295 28.693 37.8652 28.2828 37.883C27.8547 37.9008 27.4445 37.9187 27.0878 37.9365C25.2329 38.0079 23.7348 38.3112 22.6111 38.8464C21.4697 39.3995 20.8811 40.3808 20.8633 41.7902C20.8811 42.8072 21.2913 43.5386 22.0939 43.9668C22.8787 44.4307 23.8061 44.6626 24.8941 44.6626C25.661 44.6626 26.4457 44.5378 27.2127 44.3058C27.9439 44.0917 28.5503 43.7706 28.9962 43.3424H29.0497C29.0319 43.6992 29.0854 44.0382 29.2281 44.3772H33.8653C33.7226 44.1274 33.6512 43.8063 33.6512 43.4138C33.6512 43.1997 33.7404 42.8072 33.9009 42.2006C34.0614 41.594 34.2398 40.8982 34.4538 40.131C34.9354 38.4718 35.1851 37.1515 35.2207 36.1524C35.2386 35.4923 35.0424 34.9749 34.6322 34.5824ZM29.1746 41.4869C28.7465 41.9686 28.1044 42.2184 27.2483 42.2184C26.8381 42.2184 26.4814 42.147 26.1425 42.0222C25.8037 41.8973 25.6253 41.6475 25.6253 41.2907C25.6253 40.8982 25.8037 40.6127 26.1425 40.3986C26.4636 40.2024 26.8381 40.0953 27.2662 40.0775C27.7477 40.0418 28.2114 39.9883 28.6752 39.9347C29.1211 39.8812 29.5491 39.7742 29.9593 39.5958C29.8166 40.3808 29.5669 41.0231 29.1746 41.4869Z" fill="#FF7900"/>
<path d="M41.8838 44.5565C43.6316 44.4495 45.0406 44.1105 46.1107 43.5039C47.3771 42.8081 48.0191 41.8268 48.037 40.5601C48.037 39.454 47.5554 38.6689 46.5745 38.1872C45.5757 37.7055 44.0954 37.3844 42.0978 37.206C41.313 37.1881 40.9028 36.9205 40.885 36.3853C40.885 36.0463 41.0633 35.8144 41.4022 35.6716C41.6876 35.5646 42.0265 35.5111 42.401 35.5111C42.8469 35.5111 43.2571 35.6003 43.6316 35.7787C43.9348 35.9393 44.0597 36.2247 44.0062 36.6529H48.7504C48.8217 35.9392 48.679 35.3326 48.3402 34.8688C47.9835 34.4049 47.5019 34.0659 46.8598 33.834C46.2356 33.6021 45.5579 33.4236 44.8088 33.3344C44.0597 33.2631 43.3106 33.2274 42.5615 33.2274C40.8493 33.2096 39.2976 33.4772 37.9065 34.0124C37.2644 34.2979 36.7472 34.7082 36.3548 35.2256C35.9268 35.743 35.7127 36.4031 35.7127 37.1881C35.7127 37.7769 35.8733 38.2408 36.1765 38.5797C36.4797 38.9187 36.8185 39.2042 37.2109 39.4004C37.639 39.5788 38.067 39.7037 38.4594 39.7929C38.8339 39.8821 39.1371 39.9535 39.369 39.9713C39.9219 40.0249 40.3856 40.0784 40.8136 40.1141C41.2417 40.1676 41.5984 40.239 41.9016 40.3282C42.2048 40.3817 42.4545 40.4709 42.6329 40.5958C42.7755 40.7028 42.8469 40.8812 42.8469 41.0775C42.8647 41.2202 42.7755 41.3986 42.5972 41.6306C42.4723 41.7198 42.3118 41.809 42.08 41.8804C41.8481 41.9874 41.5449 42.0409 41.1347 42.0409C40.5104 42.0409 40.2429 42.1658 39.8862 41.9696C39.5652 41.7376 39.797 41.4878 39.797 41.0775H34.4464C34.4286 41.8804 34.6248 42.2372 35.0172 42.701C35.3917 43.2184 35.9089 43.6109 36.551 43.8607C37.1752 44.1105 37.853 44.2889 38.6021 44.3959L40.564 42.7902L41.8838 44.5565Z" fill="#FF7900"/>
<path d="M44.8198 48.183L43.5891 52.7681C43.4821 53.1428 43.3751 53.5353 43.2503 53.9813C43.1254 54.4274 42.9649 54.8377 42.7866 55.1945C42.6082 55.5692 42.3763 55.8725 42.0553 56.1223C41.7521 56.4077 41.3241 56.5326 40.8068 56.5326C39.5227 56.5326 40.2539 54.8199 40.4501 54.1419C40.4501 54.1419 41.6986 49.6816 42.091 48.29H44.5166L41.8591 44.5434C41.5559 44.5612 41.2527 44.5791 40.9317 44.5791C40.2004 44.5791 39.4692 44.5255 38.7201 44.4006C38.7023 44.4006 38.6666 44.4007 38.6488 44.3828L33.8867 48.3079H36.9722C36.134 51.2873 35.5632 53.3569 35.2422 54.5166C34.9747 55.48 34.8498 56.604 35.3314 57.5317C35.9378 58.6736 37.2576 59.0125 38.4526 59.1374C39.059 59.1909 39.6654 59.2088 40.2539 59.191C40.6106 59.1731 40.9852 59.1196 41.3241 58.9769C41.5024 58.9055 41.6629 58.8163 41.8235 58.7271C41.9126 58.6736 42.1267 58.3881 42.2158 58.3881H42.2693L42.091 59.0125H46.4963L49.3678 48.2187H44.8198V48.183Z" fill="#FF7900"/>
<path d="M57.3271 48.1212C55.5971 48.0677 54.8302 48.5672 54.8302 48.5672V48.1212H49.8363L46.0195 62.5904L50.9778 62.4476L51.9944 58.5761C51.9944 58.5761 52.0479 59.6644 55.2582 59.1827C58.4686 58.701 61.0904 57.7554 62.0178 52.742C62.9453 47.7287 59.0572 48.1747 57.3271 48.1212ZM56.5246 51.5467L55.6328 54.9544C55.6328 54.9544 55.0621 56.6671 54.0811 56.7385C53.1002 56.8098 52.9753 55.7929 52.9753 55.3469C52.9753 54.9008 53.9206 51.5467 53.9206 51.5467C53.9206 51.5467 54.4378 50.28 55.5971 50.28C56.7564 50.2978 56.5246 51.5467 56.5246 51.5467Z" fill="#FF7900"/>
</svg>
