<svg width="124" height="40" viewBox="0 0 124 40" fill="none" xmlns="http://www.w3.org/2000/svg">
<path d="M6.31086 7.66255V5.31163H12.2707C12.2707 6.51014 12.1325 7.5089 11.8407 8.33864C11.5642 9.16838 11.0726 9.89056 10.4121 10.5205C9.36761 11.4886 8.01588 11.9803 6.32622 11.9803C4.48295 11.9803 3.00834 11.4117 1.88702 10.2593C0.781066 9.15301 0.228088 7.75475 0.228088 6.07991C0.228088 4.31287 0.811787 2.86851 1.96383 1.74683C3.10051 0.60978 4.59048 0.0412598 6.46447 0.0412598C7.69331 0.0412598 8.73782 0.30247 9.58265 0.824897C10.4889 1.37806 11.1801 2.17706 11.641 3.20655L8.7839 4.3897C8.59958 3.92873 8.32309 3.5446 7.95444 3.22192C7.49362 2.83779 6.956 2.6534 6.34158 2.6534C5.55819 2.6534 4.89769 2.91461 4.36007 3.45241C3.68421 4.12849 3.34628 5.00432 3.34628 6.11064C3.34628 7.12476 3.65349 7.96986 4.26791 8.61522C4.82089 9.19911 5.52747 9.50641 6.38766 9.50641C7.06353 9.50641 7.63187 9.32203 8.0466 8.96862C8.43061 8.66131 8.66102 8.23108 8.75319 7.67792H6.31086V7.66255Z" fill="#FF7900"/>
<path d="M21.3029 11.8734L20.5964 9.92202H16.4029L15.6195 11.8734H12.4246L16.8638 0.287842H20.1509L24.5133 11.8734H21.3029ZM17.217 7.64793H19.7976L18.492 3.89874L17.217 7.64793Z" fill="#FF7900"/>
<path d="M24.8971 10.8436L26.1874 8.41585C27.0168 9.19949 27.9078 9.599 28.8448 9.599C29.3824 9.599 29.7664 9.4607 30.0122 9.19949C30.2118 8.99974 30.304 8.7539 30.304 8.47732C30.304 8.20074 30.1965 7.97025 29.9814 7.78587C29.7971 7.61685 29.3056 7.4171 28.4915 7.17125L27.7081 6.92539C26.94 6.67955 26.3717 6.37224 26.0491 5.9881C25.6037 5.51177 25.3886 4.83569 25.3886 3.94449C25.3886 2.79208 25.7419 1.85478 26.4485 1.14796C27.1704 0.425785 28.1689 0.0570068 29.4131 0.0570068C30.6112 0.0570068 31.794 0.364323 32.9921 0.994309L31.794 3.34523C31.1335 2.8228 30.473 2.56159 29.8125 2.56159C29.3977 2.56159 29.0598 2.68452 28.8294 2.915C28.6297 3.11475 28.5375 3.3145 28.5375 3.54498C28.5375 3.7601 28.5836 3.92912 28.6911 4.06741C28.8601 4.26716 29.1827 4.43618 29.7049 4.58983L30.6266 4.86642C31.5943 5.17373 32.3009 5.5425 32.731 6.01883C33.2225 6.55663 33.4836 7.2327 33.4836 8.07781C33.4836 9.29168 33.115 10.2597 32.393 10.9973C31.6096 11.7809 30.473 12.1804 28.9676 12.1804C28.1382 12.1804 27.3855 12.0575 26.6943 11.7963C26.0645 11.5504 25.4654 11.2431 24.8971 10.8436Z" fill="#FF7900"/>
<path d="M39.3671 0.29834H42.3778V11.8839H39.3825V0.29834H39.3671Z" fill="#FF7900"/>
<path d="M51.6402 2.84901H49.1825V11.8839H46.1872V2.84901H43.7295V0.29834H51.6555V2.84901H51.6402Z" fill="#FF7900"/>
<path d="M57.0158 0.303213H60.0111V7.15623C60.0111 7.9706 60.2108 8.56986 60.5948 8.93864C60.9942 9.30741 61.4704 9.49179 62.0233 9.49179C62.5763 9.49179 63.0371 9.32277 63.4058 8.98473C63.6208 8.80034 63.7744 8.56986 63.882 8.27791C63.9895 8.00133 64.0509 7.77085 64.0663 7.60183C64.0817 7.43281 64.0817 7.18696 64.0817 6.87965V0.287842H67.1077V6.94112C67.1077 7.44818 67.0923 7.86304 67.0616 8.20108C67.0309 8.52376 66.908 8.92327 66.7083 9.3996C66.5086 9.87593 66.2014 10.3062 65.8174 10.6903C64.865 11.6583 63.5901 12.1347 61.9926 12.1347C60.303 12.1347 59.028 11.6737 58.1525 10.7518C57.3998 9.93739 57.0312 8.66205 57.0312 6.95648V0.303213H57.0158Z" fill="#FF7900"/>
<path d="M74.4346 8.04255H72.5453V11.8839H69.55V0.29834H74.3271C75.5713 0.29834 76.539 0.651745 77.261 1.34319C77.9829 2.03464 78.3362 2.97194 78.3362 4.15508C78.3362 5.39969 77.9983 6.36771 77.3071 7.0438C76.6312 7.70451 75.6635 8.04255 74.4346 8.04255ZM72.5453 2.72609V5.61481H73.5591C74.1428 5.61481 74.5575 5.49189 74.8186 5.24604C75.0798 5.03092 75.2027 4.67751 75.2027 4.18581C75.2027 3.72485 75.0798 3.37144 74.8494 3.14096C74.5882 2.86438 74.1581 2.72609 73.5591 2.72609H72.5453Z" fill="#FF7900"/>
<path d="M77.5225 14.4718L79.6883 8.98627H82.2842L79.3043 14.4718H77.5225Z" fill="#FF7900"/>
<path d="M90.1642 0.29834H93.1595V11.8839H90.1642V0.29834Z" fill="#FF7900"/>
<path d="M98.5973 11.8734H95.602V0.287842H98.5973L104.127 7.37135V0.287842H107.122V11.8734H104.127L98.5973 4.78995V11.8734Z" fill="#FF7900"/>
<path d="M117.874 7.99684V11.5616C116.815 11.9458 115.954 12.1302 115.263 12.1302C113.451 12.1302 111.961 11.5463 110.778 10.3939C110.225 9.84071 109.795 9.17999 109.488 8.44244C109.18 7.68953 109.027 6.93662 109.027 6.18371C109.027 5.3847 109.18 4.61643 109.503 3.86352C109.825 3.11061 110.24 2.46526 110.778 1.9121C111.961 0.713587 113.42 0.0989685 115.156 0.0989685C115.985 0.0989685 116.891 0.298718 117.859 0.682856V4.27838C117.183 3.43328 116.308 3.01842 115.232 3.01842C114.418 3.01842 113.712 3.27963 113.143 3.78669C112.467 4.41668 112.13 5.20032 112.13 6.16835C112.13 7.09028 112.437 7.82782 113.067 8.42707C113.635 8.96486 114.357 9.22608 115.217 9.22608C116.262 9.21071 117.137 8.81121 117.874 7.99684Z" fill="#FF7900"/>
<path d="M121.208 12.2093C120.716 12.2093 120.301 12.0249 119.948 11.6715C119.595 11.3181 119.411 10.8879 119.411 10.4115C119.411 9.91984 119.595 9.50497 119.948 9.15156C120.301 8.79816 120.732 8.61377 121.208 8.61377C121.684 8.61377 122.129 8.79816 122.498 9.16693C122.836 9.50498 123.005 9.91984 123.005 10.4115C123.005 10.9032 122.836 11.3335 122.483 11.6715C122.114 12.0249 121.699 12.2093 121.208 12.2093Z" fill="#FF7900"/>
<path d="M1.97906 20.1819H7.10948V21.0731H2.94678V23.6391H6.83299V24.5303H2.94678V27.4344H7.30917V28.3256H1.97906V20.1819Z" fill="white"/>
<path d="M8.81439 20.1819H10.0432L14.7743 26.9581H14.805V20.1819H15.7727V28.341H14.5439L9.81283 21.5648H9.79747V28.341H8.82975V20.1819H8.81439Z" fill="white"/>
<path d="M17.7699 20.1819H22.9003V21.0731H18.7376V23.6391H22.6238V24.5303H18.7376V27.4344H23.1V28.3256H17.7699V20.1819Z" fill="white"/>
<path d="M24.6052 20.1819H26.6943C27.0783 20.1819 27.4776 20.1973 27.8617 20.2434C28.2457 20.2894 28.599 20.397 28.9062 20.5507C29.2134 20.7043 29.4592 20.9348 29.6588 21.2267C29.8432 21.5187 29.9507 21.9182 29.9507 22.4253C29.9507 23.0245 29.7664 23.5008 29.4131 23.8696C29.0444 24.2384 28.5529 24.4689 27.9077 24.5764L30.2272 28.341H29.0444L26.8325 24.684H25.5883V28.341H24.6206V20.1819H24.6052ZM25.5729 23.7774H26.4331C26.6943 23.7774 26.9861 23.7774 27.2626 23.7621C27.5544 23.7467 27.8156 23.7006 28.0613 23.6084C28.3071 23.5316 28.5068 23.3933 28.6604 23.2089C28.814 23.0245 28.8908 22.7633 28.8908 22.4253C28.8908 22.1333 28.8294 21.9028 28.7218 21.7184C28.599 21.5494 28.4607 21.4111 28.261 21.3036C28.0767 21.2114 27.8617 21.1499 27.6313 21.1192C27.4008 21.0885 27.1551 21.0731 26.9247 21.0731H25.5729V23.7774Z" fill="white"/>
<path d="M38.5832 27.7882C38.107 28.0494 37.6155 28.2492 37.1086 28.3721C36.5863 28.495 36.064 28.5565 35.5418 28.5565C34.8966 28.5565 34.3129 28.4489 33.7907 28.2492C33.2684 28.0341 32.8076 27.7575 32.4082 27.3734C32.0242 27.0046 31.717 26.5436 31.502 26.0212C31.2869 25.4988 31.1794 24.9149 31.1794 24.2695C31.1794 23.6242 31.2869 23.0403 31.5173 22.5179C31.7477 21.9954 32.0549 21.5498 32.4543 21.1657C32.8537 20.7969 33.3145 20.505 33.8521 20.2899C34.3897 20.0747 34.9581 19.9825 35.5725 19.9825C36.1101 19.9825 36.6324 20.0594 37.1239 20.2284C37.6154 20.3974 38.0609 20.6586 38.4603 21.0581L37.7383 21.811C37.4618 21.5191 37.1239 21.2886 36.7245 21.1196C36.3252 20.9659 35.9258 20.8737 35.5111 20.8737C35.0349 20.8737 34.6048 20.9659 34.2054 21.1196C33.806 21.2886 33.4527 21.5191 33.1609 21.8264C32.869 22.1337 32.6386 22.4871 32.4697 22.902C32.3007 23.3169 32.2239 23.7778 32.2239 24.2695C32.2239 24.7459 32.3007 25.2068 32.4697 25.6217C32.6386 26.0366 32.869 26.39 33.1609 26.6973C33.4527 27.0046 33.806 27.2351 34.2208 27.4041C34.6355 27.5731 35.0963 27.6653 35.5879 27.6653C35.9104 27.6653 36.2637 27.6192 36.6324 27.5424C36.9857 27.4656 37.3236 27.3426 37.6308 27.189V24.6844H35.7568V23.7778H38.5985V27.7882H38.5832Z" fill="white"/>
<path d="M42.5311 24.838L39.4897 20.1976H40.7186L43.0073 23.8854L45.3728 20.1976H46.5402L43.4988 24.838V28.3567H42.5311V24.838Z" fill="white"/>
<path d="M50.6566 20.1819H51.6243V28.341H50.6566V20.1819Z" fill="white"/>
<path d="M53.6523 20.1819H54.8811L59.6122 26.9581H59.6429V20.1819H60.6106V28.341H59.3818L54.6507 21.5648H54.6354V28.341H53.6676V20.1819H53.6523Z" fill="white"/>
<path d="M62.6071 20.1819H63.836L68.567 26.9581H68.5977V20.1819H69.5654V28.341H68.3366L63.6056 21.5648H63.5748V28.341H62.6071V20.1819Z" fill="white"/>
<path d="M75.3566 28.5572C74.7268 28.5572 74.1585 28.4497 73.6516 28.2346C73.1447 28.0194 72.6839 27.7275 72.2998 27.3434C71.9158 26.9592 71.624 26.5136 71.4089 25.9912C71.1939 25.4688 71.0864 24.9002 71.0864 24.2856C71.0864 23.671 71.1939 23.1025 71.4089 22.5801C71.624 22.0576 71.9158 21.5967 72.2998 21.2279C72.6839 20.8437 73.1293 20.5518 73.6516 20.3367C74.1738 20.1216 74.7422 20.014 75.3566 20.014C75.971 20.014 76.5547 20.1216 77.0616 20.3367C77.5839 20.5518 78.0293 20.8437 78.4133 21.2279C78.7973 21.612 79.0892 22.0576 79.3043 22.5801C79.5193 23.1025 79.6268 23.671 79.6268 24.2856C79.6268 24.9002 79.5193 25.4688 79.3043 25.9912C79.0892 26.5136 78.7973 26.9746 78.4133 27.3434C78.0293 27.7121 77.5839 28.0194 77.0616 28.2346C76.5393 28.4497 75.9864 28.5572 75.3566 28.5572ZM75.3566 27.6507C75.8328 27.6507 76.2629 27.5585 76.6622 27.3895C77.0616 27.2204 77.3995 26.9746 77.676 26.6673C77.9525 26.36 78.1829 26.0066 78.3365 25.5917C78.4901 25.1768 78.5669 24.7466 78.5669 24.2703C78.5669 23.7939 78.4901 23.3637 78.3365 22.9488C78.1829 22.5339 77.9525 22.1805 77.676 21.8732C77.3842 21.5659 77.0463 21.3201 76.6622 21.1511C76.2629 20.982 75.8328 20.8898 75.3566 20.8898C74.8804 20.8898 74.4503 20.982 74.0509 21.1511C73.6516 21.3354 73.3136 21.5659 73.0371 21.8732C72.7453 22.1805 72.5302 22.5339 72.3766 22.9488C72.223 23.3637 72.1462 23.7939 72.1462 24.2703C72.1462 24.7466 72.223 25.1768 72.3766 25.5917C72.5302 26.0066 72.7607 26.36 73.0371 26.6673C73.3136 26.9746 73.6669 27.2204 74.0509 27.3895C74.4503 27.5738 74.8804 27.6507 75.3566 27.6507Z" fill="white"/>
<path d="M80.0571 20.1819H81.1477L83.6515 26.8813H83.6822L86.2781 20.1819H87.3073L84.1123 28.341H83.1753L80.0571 20.1819Z" fill="white"/>
<path d="M90.333 20.1819H91.2393L94.7108 28.341H93.5895L92.76 26.3435H88.6895L87.8446 28.341H86.754L90.333 20.1819ZM90.7785 21.4265H90.7478L89.0581 25.4369H92.3913L90.7785 21.4265Z" fill="white"/>
<path d="M100.21 21.0888H97.5219V28.3414H96.5542V21.0888H93.8661V20.1976H100.225V21.0888H100.21Z" fill="white"/>
<path d="M101.347 20.1819H102.314V28.341H101.347V20.1819Z" fill="white"/>
<path d="M108.136 28.5572C107.506 28.5572 106.938 28.4497 106.431 28.2346C105.924 28.0194 105.463 27.7275 105.079 27.3434C104.695 26.9592 104.403 26.5136 104.188 25.9912C103.973 25.4688 103.865 24.9002 103.865 24.2856C103.865 23.671 103.973 23.1025 104.188 22.5801C104.403 22.0576 104.695 21.5967 105.079 21.2279C105.463 20.8437 105.908 20.5518 106.431 20.3367C106.953 20.1216 107.521 20.014 108.136 20.014C108.75 20.014 109.334 20.1216 109.841 20.3367C110.363 20.5518 110.808 20.8437 111.192 21.2279C111.576 21.612 111.868 22.0576 112.083 22.5801C112.298 23.1025 112.406 23.671 112.406 24.2856C112.406 24.9002 112.298 25.4688 112.083 25.9912C111.868 26.5136 111.576 26.9746 111.192 27.3434C110.808 27.7121 110.363 28.0194 109.841 28.2346C109.318 28.4497 108.765 28.5572 108.136 28.5572ZM108.136 27.6507C108.612 27.6507 109.042 27.5585 109.441 27.3895C109.841 27.2204 110.179 26.9746 110.455 26.6673C110.732 26.36 110.962 26.0066 111.116 25.5917C111.269 25.1768 111.346 24.7466 111.346 24.2703C111.346 23.7939 111.269 23.3637 111.116 22.9488C110.962 22.5339 110.732 22.1805 110.455 21.8732C110.163 21.5659 109.825 21.3201 109.441 21.1511C109.042 20.982 108.612 20.8898 108.136 20.8898C107.66 20.8898 107.229 20.982 106.83 21.1511C106.431 21.3354 106.093 21.5659 105.816 21.8732C105.524 22.1805 105.309 22.5339 105.156 22.9488C105.002 23.3637 104.925 23.7939 104.925 24.2703C104.925 24.7466 105.002 25.1768 105.156 25.5917C105.309 26.0066 105.54 26.36 105.816 26.6673C106.093 26.9746 106.446 27.2204 106.83 27.3895C107.229 27.5738 107.66 27.6507 108.136 27.6507Z" fill="white"/>
<path d="M113.958 20.1819H115.186L119.918 26.9581H119.948V20.1819H120.916V28.341H119.687L114.956 21.5648H114.941V28.341H113.973V20.1819H113.958Z" fill="white"/>
<path d="M118.922 36.4614V36.739H118.209V39.0762H117.868V36.739H117.151V36.4614H118.922Z" fill="white"/>
<path d="M121.993 36.4801V39.0762H121.652V37.1404L120.789 39.0762H120.549L119.683 37.1366V39.0762H119.342V36.4801H119.709L120.669 38.626L121.629 36.4801H121.993Z" fill="white"/>
</svg>
