<svg width="116" height="57" viewBox="0 0 116 57" fill="none" xmlns="http://www.w3.org/2000/svg">
<path d="M8.22761 19.8221H13.4428C13.4428 21.8416 13.0403 23.279 11.8207 24.4105C10.7594 25.4053 9.5465 25.6963 8.25713 25.6963C6.4378 25.6963 5.19539 25.0196 4.37562 24.1818C3.90373 23.6948 3.53241 23.1181 3.28321 22.4852C3.034 21.8523 2.91187 21.1757 2.92391 20.4948C2.92391 18.8706 3.56121 17.5428 4.44136 16.6712C5.27455 15.8307 6.57868 15.1729 8.36715 15.1729C9.30633 15.1729 10.3233 15.3867 11.0962 15.8604C11.8813 16.3734 12.5069 17.0997 12.9007 17.9556L10.3998 18.9965C10.2476 18.5979 9.99678 18.2451 9.67127 17.9719C9.27769 17.6363 8.7764 17.4568 8.26116 17.467C7.61546 17.4615 6.99396 17.7146 6.53306 18.1709C5.94137 18.7664 5.65425 19.7152 5.65425 20.5111C5.63571 21.3216 5.92351 22.1089 6.45926 22.7132C6.69349 22.9703 6.98018 23.1732 7.29959 23.3078C7.619 23.4423 7.96353 23.5055 8.30946 23.4928C8.83569 23.5189 9.35328 23.3505 9.76519 23.0191C10.1035 22.7321 10.3247 22.3291 10.3864 21.8876H8.23969L8.22761 19.8221Z" fill="#F47820"/>
<path d="M20.7054 23.8908H17.0359L16.353 25.607H13.5784L17.4599 15.4043H20.3257L24.1308 25.607H21.3266L20.7054 23.8908ZM20.0078 21.8713L18.87 18.5688L17.7631 21.8713H20.0078Z" fill="#F47820"/>
<path d="M25.5864 22.5454C26.1472 23.0868 26.9965 23.5849 27.9062 23.5849C28.4361 23.5849 28.7555 23.4171 28.9218 23.233C29.088 23.0617 29.1806 22.8312 29.1794 22.5914C29.1791 22.4743 29.1531 22.3587 29.1032 22.2529C29.0533 22.1471 28.9808 22.0538 28.891 21.9797C28.6334 21.7496 28.2402 21.6426 27.5882 21.4383L26.9053 21.2244C26.4813 21.089 25.8587 20.8576 25.4495 20.3988C24.9343 19.8316 24.8739 19.1129 24.8739 18.5932C24.8739 17.3385 25.3583 16.5738 25.7984 16.1312C26.3136 15.6101 27.1629 15.1675 28.3919 15.1675C29.4816 15.1971 30.55 15.4796 31.514 15.9931L30.4688 18.0586C29.6799 17.4305 29.0882 17.3696 28.7393 17.3696C28.4235 17.3584 28.115 17.4676 27.8753 17.6755C27.7967 17.7442 27.7333 17.8287 27.6889 17.9235C27.6445 18.0184 27.6203 18.1215 27.6177 18.2264C27.6063 18.3906 27.6539 18.5535 27.7519 18.6852C27.827 18.7773 28.0095 18.9559 28.6307 19.1441L29.4357 19.3891C30.073 19.588 30.7398 19.8168 31.2711 20.3988C31.7863 20.9483 31.9232 21.514 31.9232 22.2179C31.9232 23.1518 31.6951 24.0532 30.9679 24.7895C30.1025 25.6612 29.0573 25.829 27.98 25.829C27.3031 25.8433 26.6295 25.7294 25.9943 25.4933C25.4531 25.2865 24.939 25.0138 24.4634 24.6812L25.5864 22.5454Z" fill="#F47820"/>
<path d="M39.7319 15.4019V25.6073H37.1089V15.4019H39.7319Z" fill="#F47820"/>
<path d="M45.6742 17.65V25.6073H43.0512V17.65H40.8938V15.4019H47.8236V17.65H45.6742Z" fill="#F47820"/>
<path d="M55.1493 15.4019V21.4439C55.1493 21.8716 55.1653 22.5267 55.6658 23.0194C55.9998 23.3264 56.4331 23.5005 56.8849 23.5089C57.3367 23.5174 57.7761 23.3597 58.1211 23.0654C58.7275 22.524 58.7128 21.7809 58.7128 21.2151V15.4019H61.3358V21.2598C61.3358 22.3304 61.2902 23.4471 60.1994 24.5637C59.3501 25.4354 58.2888 25.8333 56.8626 25.8333C55.2713 25.8333 54.1336 25.2824 53.5084 24.6151C52.6282 23.6514 52.5222 22.3521 52.5222 21.2652V15.4019H55.1493Z" fill="#F47820"/>
<path d="M66.0815 22.2235V25.6073H63.4585V15.4019H67.6432C68.522 15.4019 69.4317 15.5697 70.2045 16.3195C70.9773 17.0694 71.1437 17.9437 71.1437 18.7978C71.1437 19.6099 71.0377 20.5573 70.2488 21.337C69.4599 22.1166 68.522 22.2235 67.7278 22.2235H66.0815ZM66.0815 20.0823H66.9603C67.2287 20.0823 67.7492 20.0525 68.0672 19.7615C68.3852 19.4705 68.4013 19.0726 68.4013 18.8289C68.4013 18.5582 68.3704 18.186 68.0981 17.9112C67.7948 17.5891 67.3092 17.5431 66.9751 17.5431H66.0815V20.0823Z" fill="#F47820"/>
<path d="M72.1553 23.0503H74.4362L71.828 27.8836H70.2649L72.1553 23.0503Z" fill="#F47820"/>
<path d="M82.4098 15.4019V25.6073H79.7854V15.4019H82.4098Z" fill="#F47820"/>
<path d="M84.531 25.6073V15.4019H87.154L91.9841 21.6428V15.4019H94.6071V25.6073H91.9841L87.154 19.3663V25.6073H84.531Z" fill="#F47820"/>
<path d="M103.999 25.3285C102.952 25.7116 102.377 25.8334 101.725 25.8334C99.9658 25.8334 98.6469 25.1295 97.8124 24.3039C96.8424 23.313 96.2932 21.9798 96.2815 20.5872C96.2813 19.8803 96.4199 19.1803 96.6894 18.5278C96.9588 17.8752 97.3538 17.2829 97.8514 16.7852C98.349 16.2875 98.9395 15.8942 99.5886 15.6279C100.238 15.3617 100.933 15.2278 101.634 15.2341C102.118 15.2341 102.907 15.3099 103.999 15.7538V18.9197C103.731 18.5654 103.384 18.2798 102.986 18.0858C102.588 17.8918 102.15 17.795 101.709 17.803C101.038 17.7794 100.384 18.0224 99.8893 18.4798C99.6077 18.7492 99.3843 19.0743 99.233 19.4348C99.0818 19.7954 99.0061 20.1836 99.0105 20.575C99.0116 21.321 99.3059 22.036 99.8289 22.5633C100.349 23.0214 101.017 23.2718 101.707 23.2671C102.102 23.2671 103.072 23.2211 103.998 22.1965L103.999 25.3285Z" fill="#F47820"/>
<path d="M105.802 25.4204C105.585 25.198 105.437 24.9161 105.378 24.6097C105.318 24.3032 105.349 23.9859 105.467 23.6972C105.585 23.4085 105.785 23.1613 106.041 22.9864C106.298 22.8114 106.6 22.7165 106.909 22.7134C107.119 22.7164 107.326 22.7612 107.518 22.8453C107.711 22.9294 107.885 23.0511 108.031 23.2033C108.176 23.3456 108.29 23.5171 108.366 23.7066C108.442 23.8961 108.478 24.0995 108.471 24.3037C108.477 24.5117 108.44 24.7185 108.361 24.9109C108.283 25.1033 108.165 25.2769 108.016 25.4204C107.872 25.5698 107.7 25.6888 107.51 25.7704C107.32 25.8519 107.116 25.8945 106.909 25.8955C106.702 25.8953 106.498 25.8532 106.308 25.7715C106.118 25.6899 105.946 25.5705 105.802 25.4204Z" fill="#F47820"/>
<path d="M4.44531 32.9282H8.92388V33.72H5.29192V35.9736H8.68238V36.7654H5.29192V39.3235H9.10501V40.1153H4.44531V32.9282Z" fill="#552C84"/>
<path d="M10.4133 32.9282H11.48L15.6057 38.8972H15.6258V32.9282H16.4751V40.1153H15.4017L11.276 34.1464H11.2559V40.1153H10.4106L10.4133 32.9282Z" fill="#552C84"/>
<path d="M18.2422 32.9282H22.7194V33.72H19.0875V35.9736H22.4779V36.7654H19.0875V39.3235H22.9005V40.1153H18.2422V32.9282Z" fill="#552C84"/>
<path d="M24.2085 32.9282H26.0305C26.3717 32.9282 26.7127 32.9485 27.0515 32.9891C27.3685 33.0254 27.6767 33.117 27.9625 33.2598C28.2295 33.3941 28.4554 33.599 28.616 33.8527C28.7993 34.1746 28.8869 34.543 28.8682 34.9138C28.8782 35.1481 28.8415 35.3821 28.7601 35.6019C28.6788 35.8216 28.5545 36.0226 28.3946 36.1929C28.0375 36.5383 27.578 36.7561 27.0864 36.8128L29.1097 40.1221H28.0726L26.1352 36.8872H25.0484V40.1153H24.2031L24.2085 32.9282ZM25.0538 36.0954H25.8091C26.0439 36.0954 26.2868 36.0954 26.539 36.0751C26.7754 36.0634 27.009 36.0178 27.2327 35.9398C27.4347 35.8715 27.6152 35.7506 27.7559 35.5892C27.9052 35.3939 27.9787 35.1504 27.9625 34.9043C27.9726 34.6877 27.92 34.4727 27.8109 34.2858C27.7109 34.1315 27.572 34.0068 27.4084 33.9244C27.2348 33.8378 27.0479 33.7815 26.8557 33.7579C26.6501 33.7308 26.4431 33.7173 26.2358 33.7173H25.0484L25.0538 36.0954Z" fill="#552C84"/>
<path d="M36.4152 39.628C36.0093 39.8566 35.5741 40.0274 35.1218 40.1355C34.6716 40.2435 34.2106 40.298 33.7479 40.298C33.2257 40.3054 32.7068 40.2136 32.2184 40.0273C31.7684 39.8549 31.3577 39.5924 31.0108 39.2558C30.6678 38.9183 30.3986 38.5121 30.2206 38.0633C30.028 37.5743 29.9323 37.0519 29.9388 36.5258C29.9317 35.9946 30.0326 35.4676 30.2353 34.9773C30.424 34.5279 30.7037 34.1231 31.0565 33.789C31.4102 33.458 31.8232 33.198 32.2734 33.0229C32.7521 32.8385 33.261 32.7466 33.7734 32.7522C34.2325 32.7503 34.689 32.822 35.1258 32.9647C35.5659 33.111 35.9648 33.3616 36.2891 33.6956L35.6611 34.3588C35.4161 34.0925 35.1155 33.8845 34.781 33.7497C34.4444 33.6097 34.0838 33.5375 33.7197 33.5372C33.3294 33.5334 32.9424 33.6094 32.582 33.7606C32.2375 33.9038 31.9256 34.1163 31.6652 34.385C31.4048 34.6538 31.2013 34.9732 31.0672 35.3238C30.7792 36.0923 30.7792 36.9403 31.0672 37.7087C31.2045 38.0616 31.4097 38.3837 31.671 38.6562C31.9349 38.9277 32.252 39.1406 32.6021 39.2815C32.9832 39.4339 33.3902 39.5098 33.8002 39.5048C34.1051 39.5025 34.4087 39.4666 34.7059 39.3979C35.0061 39.3318 35.2969 39.2276 35.5713 39.0879V36.8871H33.929V36.0953H36.4152V39.628Z" fill="#552C84"/>
<path d="M39.866 37.0185L37.2095 32.9282H38.2828L40.2846 36.1766L42.3482 32.9282H43.3638L40.7073 37.0185V40.1153H39.862L39.866 37.0185Z" fill="#552C84"/>
<path d="M46.9609 32.9282H47.8062V40.1153H46.9609V32.9282Z" fill="#552C84"/>
<path d="M49.5774 32.9282H50.644L54.7697 38.8972H54.7899V32.9282H55.6351V40.1153H54.5618L50.4361 34.1464H50.42V40.1153H49.5747L49.5774 32.9282Z" fill="#552C84"/>
<path d="M57.4061 32.9282H58.4701L62.5958 38.8972H62.6159V32.9282H63.4612V40.1153H62.3878L58.2621 34.1464H58.242V40.1153H57.3967L57.4061 32.9282Z" fill="#552C84"/>
<path d="M68.5448 40.2981C68.0328 40.3041 67.5248 40.2075 67.0501 40.0139C66.6099 39.8327 66.2099 39.5649 65.8735 39.2261C65.5364 38.8846 65.2724 38.4769 65.098 38.0283C64.7294 37.0579 64.7294 35.9844 65.098 35.014C65.2724 34.5654 65.5364 34.1577 65.8735 33.8162C66.21 33.4778 66.61 33.2105 67.0501 33.0298C68.0111 32.6509 69.0784 32.6509 70.0394 33.0298C70.4795 33.2105 70.8795 33.4778 71.2161 33.8162C71.5531 34.1577 71.8171 34.5654 71.9916 35.014C72.3601 35.9844 72.3601 37.0579 71.9916 38.0283C71.8171 38.4769 71.5531 38.8846 71.2161 39.2261C70.8796 39.5649 70.4796 39.8327 70.0394 40.0139C69.5648 40.2075 69.0567 40.3041 68.5448 40.2981V40.2981ZM68.5448 39.5063C68.9371 39.5127 69.3263 39.4347 69.6865 39.2776C70.0238 39.1285 70.3271 38.9111 70.5774 38.6387C70.8289 38.3634 71.0252 38.0417 71.1557 37.6913C71.4312 36.9415 71.4312 36.117 71.1557 35.3673C71.0254 35.0168 70.829 34.6951 70.5774 34.4199C70.327 34.1472 70.0238 33.9293 69.6865 33.7797C69.3255 33.6264 68.9378 33.5474 68.5461 33.5474C68.1544 33.5474 67.7667 33.6264 67.4057 33.7797C67.0684 33.9293 66.7652 34.1472 66.5148 34.4199C66.2632 34.6951 66.0669 35.0168 65.9365 35.3673C65.661 36.117 65.661 36.9415 65.9365 37.6913C66.067 38.0417 66.2633 38.3634 66.5148 38.6387C66.7652 38.9111 67.0684 39.1285 67.4057 39.2776C67.765 39.4343 68.1533 39.5123 68.5448 39.5063V39.5063Z" fill="#552C84"/>
<path d="M72.6504 32.9282H73.607L75.8007 38.8363H75.8208L78.0842 32.9282H78.9805L76.1925 40.1153H75.3754L72.6504 32.9282Z" fill="#552C84"/>
<path d="M81.6264 32.9282H82.422L85.4502 40.1153H84.4641L83.7395 38.349H80.1773L79.4434 40.1153H78.4868L81.6264 32.9282ZM82.0087 34.0246H81.9886L80.5128 37.5572H83.4202L82.0087 34.0246Z" fill="#552C84"/>
<path d="M90.2507 33.72H87.896V40.1153H87.048V33.72H84.6934V32.9282H90.248L90.2507 33.72Z" fill="#552C84"/>
<path d="M91.2461 32.9282H92.0913V40.1153H91.2461V32.9282Z" fill="#552C84"/>
<path d="M97.1739 40.2981C96.6619 40.3044 96.1538 40.2078 95.6793 40.0139C95.2387 39.8328 94.8383 39.565 94.5013 39.2262C94.1647 38.8845 93.9012 38.4769 93.7271 38.0283C93.3585 37.058 93.3585 35.9844 93.7271 35.0141C93.9012 34.5656 94.1647 34.1579 94.5013 33.8162C94.8383 33.4778 95.2387 33.2105 95.6793 33.0299C96.6398 32.6509 97.7067 32.6509 98.6672 33.0299C99.1077 33.2105 99.5082 33.4778 99.8452 33.8162C100.182 34.1579 100.445 34.5656 100.619 35.0141C100.989 35.9841 100.989 37.0583 100.619 38.0283C100.445 38.4769 100.182 38.8845 99.8452 39.2262C99.5082 39.565 99.1078 39.8328 98.6672 40.0139C98.1931 40.2076 97.6854 40.3043 97.1739 40.2981ZM97.1739 39.5064C97.5672 39.5129 97.9573 39.4349 98.3184 39.2776C98.6552 39.1278 98.9583 38.9104 99.2093 38.6388C99.4598 38.3628 99.656 38.0412 99.7875 37.6913C100.063 36.9416 100.063 36.1171 99.7875 35.3673C99.6562 35.0173 99.4599 34.6958 99.2093 34.4199C98.9583 34.1478 98.6553 33.93 98.3184 33.7797C97.9573 33.6266 97.5696 33.5478 97.1779 33.5478C96.7863 33.5478 96.3986 33.6266 96.0375 33.7797C95.7006 33.9293 95.3978 34.1472 95.148 34.4199C94.896 34.695 94.6992 35.0168 94.5684 35.3673C94.2946 36.1174 94.2946 36.9413 94.5684 37.6913C94.6993 38.0418 94.8961 38.3635 95.148 38.6388C95.3979 38.911 95.7007 39.1284 96.0375 39.2776C96.3961 39.4338 96.7834 39.5117 97.1739 39.5064V39.5064Z" fill="#552C84"/>
<path d="M102.255 32.9282H103.328L107.454 38.8972H107.474V32.9282H108.319V40.1153H107.246L103.12 34.1464H103.1V40.1153H102.255V32.9282Z" fill="#552C84"/>
</svg>
